<?xml version="1.0" encoding="UTF-8" standalone="no"?>
<!-- Generator: Adobe Illustrator 23.0.1, SVG Export Plug-In . SVG Version: 6.00 Build 0)  -->

<svg
   xmlns:dc="http://purl.org/dc/elements/1.1/"
   xmlns:cc="http://creativecommons.org/ns#"
   xmlns:rdf="http://www.w3.org/1999/02/22-rdf-syntax-ns#"
   xmlns:svg="http://www.w3.org/2000/svg"
   xmlns="http://www.w3.org/2000/svg"
   xmlns:sodipodi="http://sodipodi.sourceforge.net/DTD/sodipodi-0.dtd"
   xmlns:inkscape="http://www.inkscape.org/namespaces/inkscape"
   version="1.1"
   id="Capa_1"
   x="0px"
   y="0px"
   viewBox="0 0 31 31"
   style="enable-background:new 0 0 31 31;"
   xml:space="preserve"
   sodipodi:docname="cancer.svg"
   inkscape:version="0.92.3 (2405546, 2018-03-11)"><metadata
   id="metadata22"><rdf:RDF><cc:Work
       rdf:about=""><dc:format>image/svg+xml</dc:format><dc:type
         rdf:resource="http://purl.org/dc/dcmitype/StillImage" /></cc:Work></rdf:RDF></metadata><defs
   id="defs20" /><sodipodi:namedview
   pagecolor="#ffffff"
   bordercolor="#666666"
   borderopacity="1"
   objecttolerance="10"
   gridtolerance="10"
   guidetolerance="10"
   inkscape:pageopacity="0"
   inkscape:pageshadow="2"
   inkscape:window-width="640"
   inkscape:window-height="480"
   id="namedview18"
   showgrid="false"
   inkscape:zoom="7.6129032"
   inkscape:cx="15.5"
   inkscape:cy="15.5"
   inkscape:window-x="0"
   inkscape:window-y="0"
   inkscape:window-maximized="0"
   inkscape:current-layer="Capa_1" />
<style
   type="text/css"
   id="style13">
	.st0{fill:#FFFFFF;}
</style>
<path
   class="st0"
   d="M21.2,13.5c-1.5,0-2.9,0.6-4,1.7c-2.2,2.2-2.2,5.8,0,8c0.9,0.9,2,1.4,3.2,1.6c-4.9,2.3-10.9,1.5-14.9-2.6  c-0.3-0.3-0.8-0.3-1.1,0c-0.1,0.1-0.2,0.3-0.2,0.5c0,0.2,0.1,0.4,0.2,0.5c2.8,2.8,6.4,4.3,10.3,4.3c3.8,0,7.3-1.4,10-4  c0.2-0.1,0.3-0.3,0.4-0.4c1.1-1.1,1.7-2.5,1.7-4c0-1.5-0.6-2.9-1.7-4C24.1,14.1,22.7,13.5,21.2,13.5z M24.1,22.1  c-0.8,0.8-1.8,1.2-2.9,1.2c-1.1,0-2.2-0.4-2.9-1.2c-1.6-1.6-1.6-4.3,0-5.9c0.8-0.8,1.8-1.2,2.9-1.2c1.1,0,2.2,0.4,2.9,1.2  C25.7,17.8,25.7,20.5,24.1,22.1z M9.8,17.5c1.5,0,2.9-0.6,4-1.7c2.2-2.2,2.2-5.8,0-8c-0.9-0.9-2-1.4-3.2-1.6  c4.9-2.3,10.9-1.5,14.9,2.6C25.7,9,25.9,9,26.1,9c0.2,0,0.4-0.1,0.5-0.2c0.3-0.3,0.3-0.8,0-1.1C23.9,5,20.2,3.5,16.3,3.5  c-3.8,0-7.3,1.4-10,4C6.1,7.6,6,7.7,5.8,7.8c-2.2,2.2-2.2,5.8,0,8C6.9,16.9,8.3,17.5,9.8,17.5z M6.9,8.9c0.8-0.8,1.8-1.2,2.9-1.2  s2.2,0.4,2.9,1.2c1.6,1.6,1.6,4.3,0,5.9c-1.6,1.6-4.3,1.6-5.9,0C5.3,13.2,5.3,10.5,6.9,8.9z"
   id="path15"
   style="fill:#000000" />
</svg>