<?xml version="1.0" encoding="UTF-8" standalone="no"?>
<!-- Generator: Adobe Illustrator 23.0.1, SVG Export Plug-In . SVG Version: 6.00 Build 0)  -->

<svg
   xmlns:dc="http://purl.org/dc/elements/1.1/"
   xmlns:cc="http://creativecommons.org/ns#"
   xmlns:rdf="http://www.w3.org/1999/02/22-rdf-syntax-ns#"
   xmlns:svg="http://www.w3.org/2000/svg"
   xmlns="http://www.w3.org/2000/svg"
   xmlns:sodipodi="http://sodipodi.sourceforge.net/DTD/sodipodi-0.dtd"
   xmlns:inkscape="http://www.inkscape.org/namespaces/inkscape"
   version="1.1"
   id="Capa_1"
   x="0px"
   y="0px"
   viewBox="0 0 31 31"
   style="enable-background:new 0 0 31 31;"
   xml:space="preserve"
   sodipodi:docname="leo.svg"
   inkscape:version="0.92.3 (2405546, 2018-03-11)"><metadata
   id="metadata44"><rdf:RDF><cc:Work
       rdf:about=""><dc:format>image/svg+xml</dc:format><dc:type
         rdf:resource="http://purl.org/dc/dcmitype/StillImage" /></cc:Work></rdf:RDF></metadata><defs
   id="defs42" /><sodipodi:namedview
   pagecolor="#ffffff"
   bordercolor="#666666"
   borderopacity="1"
   objecttolerance="10"
   gridtolerance="10"
   guidetolerance="10"
   inkscape:pageopacity="0"
   inkscape:pageshadow="2"
   inkscape:window-width="640"
   inkscape:window-height="480"
   id="namedview40"
   showgrid="false"
   inkscape:zoom="7.6129032"
   inkscape:cx="15.5"
   inkscape:cy="15.5"
   inkscape:window-x="0"
   inkscape:window-y="0"
   inkscape:window-maximized="0"
   inkscape:current-layer="Capa_1" />
<style
   type="text/css"
   id="style35">
	.st0{fill:#FFFFFF;}
</style>
<path
   class="st0"
   d="M29.4,24.6c-0.2-0.2-0.4-0.3-0.6-0.4c-0.2,0-0.5,0-0.7,0.2c-0.2,0.2-0.3,0.4-0.4,0.6c-0.1,0.8-0.5,1.6-1.1,2.2  c-1.4,1.4-3.8,1.4-5.2,0c-1.4-1.4-1.4-3.8,0-5.2l3.1-3.1c4.1-4.1,4.1-10.9,0-15c-2-2-4.7-3.1-7.5-3.1c-2.8,0-5.5,1.1-7.5,3.1  c-3.3,3.3-3.9,8.1-2.1,12c-1.6-0.2-3.3,0.4-4.5,1.6c-1.1,1.1-1.6,2.5-1.6,4c0,1.5,0.6,2.9,1.6,4C4.1,26.5,5.5,27,7,27s2.9-0.6,4-1.6  c2.2-2.2,2.2-5.7,0-7.9c0,0,0,0,0,0c-1.6-1.6-2.5-3.8-2.5-6.1c0-2.3,0.9-4.5,2.5-6.1c1.6-1.6,3.8-2.5,6.1-2.5c2.3,0,4.5,0.9,6.1,2.5  c1.6,1.6,2.5,3.8,2.5,6.1s-0.9,4.5-2.5,6.1l-3.1,3.1c0,0,0,0,0,0c-1.1,1.1-1.6,2.5-1.6,4c0,1.5,0.6,2.9,1.6,4c1.1,1.1,2.5,1.6,4,1.6  s2.9-0.6,4-1.6c0.9-0.9,1.4-2,1.6-3.3C29.6,25,29.6,24.8,29.4,24.6z M9.6,24.1c-1.4,1.4-3.8,1.4-5.2,0c-1.4-1.4-1.4-3.8,0-5.2  C5.1,18.2,6,17.8,7,17.8s1.9,0.4,2.6,1.1c0,0,0,0,0,0c0,0,0,0,0,0c0.7,0.7,1.1,1.6,1.1,2.6C10.6,22.4,10.3,23.4,9.6,24.1z"
   id="path37"
   style="fill:#000000" />
</svg>