<?xml version="1.0" encoding="UTF-8" standalone="no"?>
<!-- Generator: Adobe Illustrator 23.0.1, SVG Export Plug-In . SVG Version: 6.00 Build 0)  -->

<svg
   xmlns:dc="http://purl.org/dc/elements/1.1/"
   xmlns:cc="http://creativecommons.org/ns#"
   xmlns:rdf="http://www.w3.org/1999/02/22-rdf-syntax-ns#"
   xmlns:svg="http://www.w3.org/2000/svg"
   xmlns="http://www.w3.org/2000/svg"
   xmlns:sodipodi="http://sodipodi.sourceforge.net/DTD/sodipodi-0.dtd"
   xmlns:inkscape="http://www.inkscape.org/namespaces/inkscape"
   version="1.1"
   id="Capa_1"
   x="0px"
   y="0px"
   viewBox="0 0 70.8 78.3"
   style="enable-background:new 0 0 70.8 78.3;"
   xml:space="preserve"
   sodipodi:docname="libra.svg"
   inkscape:version="0.92.3 (2405546, 2018-03-11)"><metadata
   id="metadata55"><rdf:RDF><cc:Work
       rdf:about=""><dc:format>image/svg+xml</dc:format><dc:type
         rdf:resource="http://purl.org/dc/dcmitype/StillImage" /></cc:Work></rdf:RDF></metadata><defs
   id="defs53" /><sodipodi:namedview
   pagecolor="#ffffff"
   bordercolor="#666666"
   borderopacity="1"
   objecttolerance="10"
   gridtolerance="10"
   guidetolerance="10"
   inkscape:pageopacity="0"
   inkscape:pageshadow="2"
   inkscape:window-width="640"
   inkscape:window-height="480"
   id="namedview51"
   showgrid="false"
   inkscape:zoom="3.0140484"
   inkscape:cx="35.400002"
   inkscape:cy="39.150002"
   inkscape:window-x="0"
   inkscape:window-y="0"
   inkscape:window-maximized="0"
   inkscape:current-layer="Capa_1" />
<style
   type="text/css"
   id="style46">
	.st0{fill:#FFFFFF;}
</style>
<path
   class="st0"
   d="M66.4,50.8C66.4,50.7,66.4,50.7,66.4,50.8l-0.1-0.5c0,0,0-0.1,0-0.1l-10.5-23v-2.5c1.2-0.2,2.1-1.2,2.1-2.4  v-0.2c0-1.2-0.9-2.2-2.1-2.4l-17-2.7v-1.3c0.7-0.8,1.1-1.9,1.1-2.9c0-2.5-2.1-4.6-4.6-4.6c-2.5,0-4.6,2.1-4.6,4.6  c0,1.1,0.4,2.1,1.1,2.9v1.2l-17,2.8c-1.2,0.2-2.1,1.2-2.1,2.4v0.2c0,1.2,0.9,2.3,2.1,2.4v2.5l-10.5,23c0,0,0,0.1,0,0.1l0,0.1  c0,0,0,0.1,0,0.1l0,0.1c0,0,0,0,0,0.1c0,0,0,0,0,0.1l0,0c0,0,0,0.1,0,0.1l0,0l0,0l0,0.1c0.1,4.3,5.3,7.7,12,7.7  c6.7,0,11.9-3.4,12-7.7l0-0.1l0-0.1c0,0,0,0,0-0.1l0,0c0,0,0-0.1,0-0.1c0,0,0-0.1,0-0.1c0,0,0,0,0-0.1c0,0,0-0.1,0-0.1l0-0.1  c0,0,0,0,0-0.1l-10.5-23v-2.5h14.1v20.9c-0.7,0.5-1.1,1.2-1.1,2v14.3l-6,1.9c-1.5,0.5-2.5,1.8-2.5,3.4v1.6c0,0.8,0.6,1.4,1.4,1.4H47  c0.8,0,1.4-0.6,1.4-1.4v-1.6c0-1.5-1-2.9-2.5-3.4l-6-1.9V47.6c0-0.8-0.4-1.6-1.1-2V24.7H53v2.5l-10.4,23l0,0.1l-0.1,0.4  c0,0,0,0.1,0,0.1l0,0.1c0.1,4.3,5.3,7.7,12,7.7C61.1,58.5,66.3,55.2,66.4,50.8L66.4,50.8L66,50.8L66.4,50.8L66.4,50.8z M24.8,49.4H8  l8.4-18.5L24.8,49.4z M31.9,19.7v2.2H18.6L31.9,19.7z M33.6,12.7c0-1,0.8-1.8,1.8-1.8c1,0,1.8,0.8,1.8,1.8s-0.8,1.8-1.8,1.8  C34.4,14.5,33.6,13.7,33.6,12.7z M54.4,30.9l8.4,18.5H46L54.4,30.9z M38.9,21.9v-2.1l13.2,2.1H38.9z M66,50.5L66,50.5L66,50.5  L66,50.5z M42.9,50.6L42.9,50.6L42.9,50.6L42.9,50.6z M42.9,50.7L42.9,50.7L42.9,50.7L42.9,50.7z M42.9,50.8L42.9,50.8L42.9,50.8  L42.9,50.8z"
   id="path48"
   style="fill:#000000" />
</svg>