<?xml version="1.0" encoding="UTF-8" standalone="no"?>
<!-- Generator: Adobe Illustrator 23.0.1, SVG Export Plug-In . SVG Version: 6.00 Build 0)  -->

<svg
   xmlns:dc="http://purl.org/dc/elements/1.1/"
   xmlns:cc="http://creativecommons.org/ns#"
   xmlns:rdf="http://www.w3.org/1999/02/22-rdf-syntax-ns#"
   xmlns:svg="http://www.w3.org/2000/svg"
   xmlns="http://www.w3.org/2000/svg"
   xmlns:sodipodi="http://sodipodi.sourceforge.net/DTD/sodipodi-0.dtd"
   xmlns:inkscape="http://www.inkscape.org/namespaces/inkscape"
   version="1.1"
   id="Capa_1"
   x="0px"
   y="0px"
   viewBox="0 0 31 31"
   style="enable-background:new 0 0 31 31;"
   xml:space="preserve"
   sodipodi:docname="tauro.svg"
   inkscape:version="0.92.3 (2405546, 2018-03-11)"><metadata
   id="metadata11"><rdf:RDF><cc:Work
       rdf:about=""><dc:format>image/svg+xml</dc:format><dc:type
         rdf:resource="http://purl.org/dc/dcmitype/StillImage" /></cc:Work></rdf:RDF></metadata><defs
   id="defs9" /><sodipodi:namedview
   pagecolor="#ffffff"
   bordercolor="#666666"
   borderopacity="1"
   objecttolerance="10"
   gridtolerance="10"
   guidetolerance="10"
   inkscape:pageopacity="0"
   inkscape:pageshadow="2"
   inkscape:window-width="640"
   inkscape:window-height="480"
   id="namedview7"
   showgrid="false"
   inkscape:zoom="7.6129032"
   inkscape:cx="15.5"
   inkscape:cy="15.5"
   inkscape:window-x="0"
   inkscape:window-y="0"
   inkscape:window-maximized="0"
   inkscape:current-layer="Capa_1" />
<style
   type="text/css"
   id="style2">
	.st0{fill:#FFFFFF;}
</style>
<path
   class="st0"
   d="M24,2.6c-3.1,0-5.6,2.5-5.6,5.6c0,0,0,0,0,0c0,2.2-1.8,4-4,4c-2.2,0-4-1.8-4-4c0,0,0,0,0,0  c0-3.1-2.5-5.6-5.6-5.6C4.3,2.6,4,3,4,3.4s0.4,0.8,0.8,0.8c2.2,0,4,1.8,4,4c0,0,0,0,0,0c0,1.9,1,3.6,2.5,4.6  c-2.9,1.2-4.9,4.1-4.9,7.4c0,4.4,3.6,8.1,8.1,8.1s8.1-3.6,8.1-8.1c0-3.3-2-6.2-4.9-7.4c1.5-1,2.5-2.7,2.5-4.6c0,0,0,0,0,0  c0-2.2,1.8-4,4-4c0.4,0,0.8-0.4,0.8-0.8S24.4,2.6,24,2.6z M14.4,26.7c-3.6,0-6.4-2.9-6.4-6.4c0-3.6,2.9-6.4,6.4-6.4s6.4,2.9,6.4,6.4  S17.9,26.7,14.4,26.7z"
   id="path4"
   style="fill:#000000" />
</svg>