<?xml version="1.0" encoding="utf-8"?>
<!-- Generator: Adobe Illustrator 23.0.1, SVG Export Plug-In . SVG Version: 6.00 Build 0)  -->
<svg version="1.1" id="Capa_1" xmlns="http://www.w3.org/2000/svg" xmlns:xlink="http://www.w3.org/1999/xlink" x="0px" y="0px"
	 viewBox="0 0 70.8 78.3" style="enable-background:new 0 0 70.8 78.3;" xml:space="preserve">
<style type="text/css">
	.st0{fill:#164543;}
</style>
<g>
	<g>
		<path class="st0" d="M68.3,18.3V4.4c0-0.7-0.3-1.3-0.8-1.7c-0.5-0.4-1.2-0.5-1.8-0.3L24.1,15.6c-0.9,0.3-1.4,1.1-1.4,2v40.6
			c-2.2-1.5-5-2.3-7.9-2.3c-3.1,0-6,0.9-8.3,2.6c-2.4,1.8-3.7,4.3-3.7,6.9c0,2.7,1.3,5.1,3.7,6.9c2.2,1.7,5.2,2.6,8.3,2.6
			s6-0.9,8.3-2.6c2.4-1.8,3.7-4.3,3.7-6.9V33l37.4-11.9v23.8c-2.2-1.5-5-2.3-7.9-2.3c-3.1,0-6,0.9-8.3,2.6c-2.4,1.8-3.7,4.3-3.7,6.9
			c0,2.7,1.3,5.1,3.7,6.9c2.2,1.7,5.2,2.6,8.3,2.6c3.1,0,6-0.9,8.3-2.6c2.4-1.8,3.7-4.3,3.7-6.9V18.3z M14.8,70.8
			c-4.3,0-7.9-2.5-7.9-5.4c0-2.9,3.6-5.4,7.9-5.4c4.3,0,7.9,2.5,7.9,5.4C22.7,68.3,19.1,70.8,14.8,70.8L14.8,70.8z M26.8,28.7v-9.6
			L64.2,7.2v9.6L26.8,28.7z M56.3,57.5c-4.3,0-7.9-2.5-7.9-5.4c0-2.9,3.6-5.4,7.9-5.4c4.3,0,7.9,2.5,7.9,5.4
			C64.2,55.1,60.6,57.5,56.3,57.5L56.3,57.5z M56.3,57.5"/>
	</g>
</g>
</svg>
