<?xml version="1.0" encoding="utf-8"?>
<!-- Generator: Adobe Illustrator 23.0.1, SVG Export Plug-In . SVG Version: 6.00 Build 0)  -->
<svg version="1.1" id="Capa_1" xmlns="http://www.w3.org/2000/svg" xmlns:xlink="http://www.w3.org/1999/xlink" x="0px" y="0px"
	 viewBox="0 0 70.8 78.3" style="enable-background:new 0 0 70.8 78.3;" xml:space="preserve">
<style type="text/css">
	.st0{fill:#164543;}
</style>
<path class="st0" d="M24.5,12.3c-3.6,1.5-6.8,3.6-9.6,6.4c-2.8,2.8-4.9,6-6.4,9.6c-1.4,3.5-2.1,7.1-2.1,10.9c0,3.8,0.7,7.4,2.1,10.9
	c1.5,3.6,3.6,6.8,6.4,9.6c2.8,2.8,6,4.9,9.6,6.4c3.5,1.4,7.1,2.1,10.9,2.1c3.8,0,7.4-0.7,10.9-2.1c3.6-1.5,6.8-3.6,9.6-6.4
	c2.8-2.8,4.9-6,6.4-9.6c1.4-3.5,2.1-7.1,2.1-10.9c0-3.8-0.7-7.4-2.1-10.9c-1.5-3.6-3.6-6.8-6.4-9.6c-2.8-2.8-6-4.9-9.6-6.4
	c-3.5-1.4-7.1-2.1-10.9-2.1C31.6,10.2,28,10.9,24.5,12.3L24.5,12.3z M13.7,51.3c-1.4-0.9-2.7-1.9-3.8-3.1c-1.7-4.9-2-10.2-0.9-15.2
	C9.5,32,10.2,31,10.8,30c0.2-0.3,0.4-0.6,0.6-0.9l6.5,3.9v0.2c0,3.5,0.3,7,1.1,10.4c0,0,0,0,0,0L14,51.5
	C13.9,51.5,13.8,51.4,13.7,51.3L13.7,51.3z M33.1,64.8c1.1,0.6,2.3,1.1,3.5,1.5c-5.1,0.2-10.2-1-14.7-3.6l10.9,2
	C32.9,64.7,33,64.7,33.1,64.8L33.1,64.8z M33.1,62.8l-12.9-2.3c-1.5-1.8-2.9-3.8-4-5.9c-0.3-0.5-0.6-1-0.9-1.6l5.1-7.9
	c0.1,0,0.2,0.1,0.4,0.1c3.2,0.8,6.4,1.4,9.6,1.9c0.2,0,0.3,0.1,0.5,0.1l6.1,10.5c-1.1,1.5-2.1,3-3.2,4.4
	C33.5,62.3,33.3,62.6,33.1,62.8L33.1,62.8z M54.6,58.3c-1,1-2.1,2-3.3,2.8c-0.2-1.5-0.5-3-1-4.4l6.5-12.1c1.8-0.8,3.5-1.7,5.1-2.9
	c0.2-0.1,0.4-0.3,0.5-0.5C62,47.5,59.3,53.6,54.6,58.3L54.6,58.3z M54.3,42.7c0.2,0.5,0.5,0.9,0.7,1.4l-6.3,11.7c0,0-0.1,0-0.1,0
	c-3.4,0.6-6.8,1-10.2,1l-6.2-10.8c1-1.8,1.9-3.6,2.9-5.4c0.6-1.2,1.3-2.5,1.9-3.7l12.9-1.3C51.5,37.8,53,40.2,54.3,42.7L54.3,42.7z
	 M51.7,28.8c-0.6,1.6-1.3,3.2-1.9,4.8l-12.6,1.3c-0.2-0.2-0.3-0.4-0.5-0.6c-1.5-1.7-3-3.4-4.5-5c0,0,0,0,0,0
	c-0.6-0.6-1.2-1.2-1.8-1.8L34,16.9c0.2-0.1,0.5-0.1,0.7-0.1c1.9-0.2,3.8-0.4,5.7-0.5c1.2-0.1,2.3-0.1,3.5,0l8.7,9.8
	C52.3,27,52,27.9,51.7,28.8L51.7,28.8z M54.6,20c2.4,2.4,4.2,5.1,5.6,8c-1.6-1.1-3.4-2-5.2-2.8c-0.3-0.1-0.6-0.2-0.9-0.3l-8.5-9.6
	c0.1-0.4,0.1-0.8,0.1-1.2C48.9,15.4,51.9,17.4,54.6,20L54.6,20z M26.7,13.6C26.8,13.6,26.8,13.6,26.7,13.6c2,0.7,3.8,1.7,5.5,2.9
	l-3.3,9.9c0,0,0,0-0.1,0c-0.7,0.3-1.4,0.5-2,0.8c-2.7,1.2-5.4,2.6-7.9,4.2l-6.5-3.8c0-0.2,0-0.4,0.1-0.6c0.4-1.2,0.9-2.3,1.4-3.5
	c0.4-0.9,0.8-1.7,1.3-2.5c0.3-0.3,0.6-0.7,1-1C19.3,16.9,22.9,14.7,26.7,13.6C26.8,13.5,26.7,13.5,26.7,13.6L26.7,13.6z M26.7,13.6"
	/>
</svg>
