<?xml version="1.0" encoding="utf-8"?>
<!-- Generator: Adobe Illustrator 23.0.1, SVG Export Plug-In . SVG Version: 6.00 Build 0)  -->
<svg version="1.1" id="Capa_1" xmlns="http://www.w3.org/2000/svg" xmlns:xlink="http://www.w3.org/1999/xlink" x="0px" y="0px"
	 viewBox="0 0 70.8 78.3" style="enable-background:new 0 0 70.8 78.3;" xml:space="preserve">
<style type="text/css">
	.st0{fill:#164543;}
</style>
<g>
	<path class="st0" d="M35.4,42.7c-6.1,0-11-4.9-11-11c0-6.1,4.9-11,11-11c6,0,11,4.9,11,11C46.4,37.8,41.5,42.7,35.4,42.7z
		 M35.4,24.7c-3.9,0-7.1,3.2-7.1,7.1c0,3.9,3.2,7.1,7.1,7.1c3.9,0,7-3.2,7-7.1C42.5,27.8,39.3,24.7,35.4,24.7z"/>
</g>
<g>
	<path class="st0" d="M35.2,69.2C35.2,69.2,35.2,69.2,35.2,69.2c-1.4,0-2.7-0.7-3.5-1.9L16.1,43.5c-2.2-3.6-3.3-7.6-3.3-11.7
		C12.8,19.3,23,9.2,35.4,9.2C47.9,9.2,58,19.3,58,31.7c0,4.1-1.1,8.2-3.3,11.7l0,0.1l-16,23.8C37.9,68.5,36.6,69.2,35.2,69.2z
		 M35.4,13.1c-10.3,0-18.7,8.4-18.7,18.7c0,3.4,0.9,6.8,2.7,9.7L35,65.1c0.1,0.1,0.1,0.1,0.2,0.1h0c0.1,0,0.2,0,0.2-0.1l16-23.8
		c1.7-2.9,2.7-6.2,2.7-9.6C54.1,21.4,45.7,13.1,35.4,13.1z"/>
</g>
</svg>
