<?xml version="1.0" encoding="utf-8"?>
<!-- Generator: Adobe Illustrator 23.0.1, SVG Export Plug-In . SVG Version: 6.00 Build 0)  -->
<svg version="1.1" id="Capa_1" xmlns="http://www.w3.org/2000/svg" xmlns:xlink="http://www.w3.org/1999/xlink" x="0px" y="0px"
	 viewBox="0 0 70.8 78.3" style="enable-background:new 0 0 70.8 78.3;" xml:space="preserve">
<style type="text/css">
	.st0{fill:#164543;}
</style>
<path class="st0" d="M35.4,10C19.5,10,6.6,22.9,6.6,38.8s12.9,28.8,28.8,28.8c15.9,0,28.8-12.9,28.8-28.8S51.3,10,35.4,10z
	 M35.4,63.9c-13.9,0-25.1-11.3-25.1-25.2s11.3-25.2,25.1-25.2c13.9,0,25.2,11.3,25.2,25.2S49.3,63.9,35.4,63.9z M40.1,38.8v-0.1
	c2-0.7,4.1-2.7,4.1-5.7c0-2.1-0.8-3.7-2.1-4.8c-1.6-1.3-4-1.8-7.5-1.8c-2.8,0-5.3,0.2-7,0.5v22.8h5.2v-9.1h1.6
	c2.1,0,3.1,0.8,3.7,3.7c0.7,2.8,1.2,4.7,1.6,5.4H45c-0.4-0.9-1.2-3.9-1.9-6.5C42.6,41,41.7,39.5,40.1,38.8z M34.8,36.8h-2.1v-6.4
	c0.4-0.1,1.1-0.2,2.4-0.2c2.4,0,3.8,1.1,3.8,3.2C39,35.5,37.4,36.8,34.8,36.8z"/>
</svg>
