<?xml version="1.0" encoding="utf-8"?>
<!-- Generator: Adobe Illustrator 23.0.1, SVG Export Plug-In . SVG Version: 6.00 Build 0)  -->
<svg version="1.1" id="Capa_1" xmlns="http://www.w3.org/2000/svg" xmlns:xlink="http://www.w3.org/1999/xlink" x="0px" y="0px"
	 viewBox="0 0 70.8 78.3" style="enable-background:new 0 0 70.8 78.3;" xml:space="preserve">
<style type="text/css">
	.st0{fill:#164543;}
</style>
<path class="st0" d="M60.8,52.7L16.9,8.9h-1.8l-0.4,1c-1,2.5-1.4,5.1-1.2,7.5c0.2,2.7,1.2,5,3,6.7l18.4,18.4l2.4-2.4l17,19.1
	c1.7,1.7,4.6,1.8,6.4,0C62.5,57.4,62.5,54.5,60.8,52.7z M11.9,52.7c-1.8,1.8-1.8,4.6,0,6.4c1.7,1.7,4.6,1.8,6.4,0l14.4-14.4
	l-6.4-6.4L11.9,52.7z M46.5,32.5c1.8-0.1,3.6-0.9,4.9-2.2L62,19.6l-2.1-2.1l-8.2,8.2l-2.1-2.1l8.2-8.2l-2.1-2.1l-8.2,8.2l-2.1-2.1
	l8.2-8.2l-2.1-2.1L40.7,19.6c-1.3,1.3-2.1,3-2.2,4.9c0,0.5-0.1,0.9-0.3,1.4l6.9,6.9C45.5,32.6,46,32.5,46.5,32.5z"/>
</svg>
