<?xml version="1.0" encoding="utf-8"?>
<!-- Generator: Adobe Illustrator 23.0.1, SVG Export Plug-In . SVG Version: 6.00 Build 0)  -->
<svg version="1.1" id="Capa_1" xmlns="http://www.w3.org/2000/svg" xmlns:xlink="http://www.w3.org/1999/xlink" x="0px" y="0px"
	 viewBox="0 0 70.8 78.3" style="enable-background:new 0 0 70.8 78.3;" xml:space="preserve">
<style type="text/css">
	.st0{fill:#164543;}
</style>
<g>
	<g>
		<g>
			<path class="st0" d="M65.4,28c-1.9-3.2-4.6-6.3-6.4-7.9c-4-3.5-7.3-3.4-8.9-3.1c-0.7,0.2-1.3,0.4-1.9,0.7
				c-2.8-2.1-6.3-3.1-10.4-3.1s-7.6,1-10.4,3.1c-0.6-0.3-1.2-0.6-1.9-0.7c-1.6-0.4-4.9-0.5-8.9,3.1c-1.8,1.6-4.5,4.7-6.4,7.9
				C7.5,32.4,7,36,8.4,38.6c1.8,3.2,4.5,4,6.6,4.2c-0.5,2.1-0.9,4.3-0.9,7.1c0,3.7,0.8,6.8,2.5,9.4c1.4,2.2,3.5,4,6.2,5.4
				c4.9,2.4,10.8,2.7,14.9,2.7s10-0.3,14.9-2.7c2.7-1.3,4.8-3.1,6.2-5.4c1.6-2.6,2.5-5.7,2.5-9.4c0-2.8-0.3-5-0.9-7.1
				c2.2-0.2,4.9-1,6.6-4.2C68.6,36,68,32.4,65.4,28z M16.2,39.1c-1.9-0.1-3.5-0.4-4.6-2.4c-0.7-1.3-0.1-3.8,1.7-6.8
				c1.7-2.9,4.2-5.7,5.7-7c2.6-2.3,4.5-2.4,5.4-2.3c-2.7,3.3-4.3,7.5-5.7,11.7c-0.6,1.7-1.1,3.2-1.7,4.6
				C16.7,37.7,16.5,38.4,16.2,39.1z M35.3,51.2c-1-1-1.5-2-1.5-2.5c0-0.4,0.1-0.5,0.4-0.6c0.8-0.3,2.4-0.4,3.5-0.4
				c1.1,0,2.7,0,3.5,0.4c0.3,0.1,0.4,0.2,0.4,0.6c0,0.5-0.5,1.5-1.5,2.5c-0.9,0.9-1.9,1.4-2.4,1.4S36.3,52.1,35.3,51.2z M51,61.2
				c-2.8,1.4-6.6,2.1-11.4,2.3V56c1.4-0.6,2.6-1.6,3.2-2.2c0.8-0.8,2.5-2.8,2.5-5.1c0-1.9-0.9-3.3-2.6-4c-1.1-0.5-2.6-0.7-4.9-0.7
				s-3.8,0.2-4.9,0.7c-1.7,0.7-2.6,2.1-2.6,4c0,2.3,1.8,4.3,2.5,5.1c0.5,0.5,1.7,1.6,3.2,2.2v7.6c-4.8-0.1-8.6-0.9-11.4-2.3
				c-4.5-2.2-6.6-5.9-6.6-11.4c0-4.7,1.1-7.6,2.6-11.6c0.5-1.4,1.1-2.9,1.7-4.7c3.3-9.8,6.7-15.1,15.6-15.1s12.3,5.3,15.6,15.1
				c0.6,1.8,1.2,3.3,1.7,4.7c1.5,4,2.6,6.9,2.6,11.6C57.6,55.3,55.5,59.1,51,61.2z M63.9,36.8c-1.1,1.9-2.6,2.3-4.6,2.4
				c-0.3-0.7-0.5-1.4-0.8-2.2c-0.5-1.4-1.1-2.9-1.7-4.6c-1.4-4.1-3-8.4-5.7-11.7c0.9-0.1,2.8,0,5.4,2.3c1.6,1.4,4,4.2,5.7,7
				C64,33,64.6,35.4,63.9,36.8z"/>
			<path class="st0" d="M31.6,34.3c-1.3,0-2.4,1.1-2.4,2.5c0,1.4,1.1,2.5,2.4,2.5c1.3,0,2.4-1.1,2.4-2.5C34,35.4,33,34.3,31.6,34.3z
				"/>
			<path class="st0" d="M43.9,34.3c-1.3,0-2.4,1.1-2.4,2.5c0,1.4,1.1,2.5,2.4,2.5c1.3,0,2.4-1.1,2.4-2.5
				C46.3,35.4,45.2,34.3,43.9,34.3z"/>
		</g>
	</g>
</g>
</svg>
