<?xml version="1.0" encoding="utf-8"?>
<!-- Generator: Adobe Illustrator 23.0.1, SVG Export Plug-In . SVG Version: 6.00 Build 0)  -->
<svg version="1.1" id="Capa_1" xmlns="http://www.w3.org/2000/svg" xmlns:xlink="http://www.w3.org/1999/xlink" x="0px" y="0px"
	 viewBox="0 0 70.8 78.3" style="enable-background:new 0 0 70.8 78.3;" xml:space="preserve">
<style type="text/css">
	.st0{fill:#164543;}
</style>
<g>
	<rect x="40.2" y="48.6" class="st0" width="0" height="5.1"/>
	<path class="st0" d="M28.5,34.6c-0.1,0.2-2.3,5.6-2.3,5.7c0,0,0-0.1,0.1-0.1L28.5,34.6z"/>
	<path class="st0" d="M18.8,29.2C18.8,29.2,18.8,29.2,18.8,29.2C18.8,29.2,18.8,29.2,18.8,29.2z"/>
	<path class="st0" d="M18.9,29.9C18.9,29.8,18.9,29.8,18.9,29.9C18.9,29.8,18.9,29.8,18.9,29.9z"/>
	<path class="st0" d="M35.4,8.8c0.1,0,0.3,0,0.4,0C35.7,8.8,35.5,8.8,35.4,8.8z"/>
	<path class="st0" d="M18.9,29.6C18.9,29.6,18.8,29.6,18.9,29.6C18.8,29.6,18.9,29.6,18.9,29.6z"/>
	<path class="st0" d="M18.8,29.4C18.8,29.4,18.8,29.4,18.8,29.4C18.8,29.4,18.8,29.4,18.8,29.4z"/>
	<path class="st0" d="M36.7,8.9c0.1,0,0.1,0,0.2,0C36.9,8.9,36.8,8.9,36.7,8.9z"/>
	<path class="st0" d="M36.3,8.9c0.1,0,0.2,0,0.2,0C36.5,8.9,36.4,8.9,36.3,8.9z"/>
	<path class="st0" d="M35.9,8.8c0.1,0,0.2,0,0.3,0C36.1,8.8,36,8.8,35.9,8.8z"/>
	<path class="st0" d="M19.2,30.3C19.2,30.3,19.1,30.3,19.2,30.3C19.1,30.3,19.2,30.3,19.2,30.3z"/>
	<path class="st0" d="M19.6,30.8C19.6,30.8,19.6,30.8,19.6,30.8C19.6,30.8,19.6,30.8,19.6,30.8z"/>
	<path class="st0" d="M19.8,31C19.8,30.9,19.7,30.9,19.8,31C19.7,30.9,19.8,30.9,19.8,31z"/>
	<path class="st0" d="M20,31.1C19.9,31,19.9,31,20,31.1C19.9,31,19.9,31,20,31.1z"/>
	<path class="st0" d="M20.2,31.2C20.1,31.1,20.1,31.1,20.2,31.2C20.1,31.1,20.1,31.1,20.2,31.2z"/>
	<path class="st0" d="M19.4,30.6C19.4,30.6,19.4,30.6,19.4,30.6C19.4,30.6,19.4,30.6,19.4,30.6z"/>
	<path class="st0" d="M19.1,30.1C19,30.1,19,30.1,19.1,30.1C19,30.1,19,30.1,19.1,30.1z"/>
	<path class="st0" d="M37.1,8.9c0.1,0,0.1,0,0.2,0C37.2,9,37.2,8.9,37.1,8.9z"/>
	<path class="st0" d="M19.3,30.5C19.3,30.5,19.3,30.4,19.3,30.5C19.3,30.4,19.3,30.5,19.3,30.5z"/>
	<path class="st0" d="M45.1,12.7c0.1,0.1,0.2,0.1,0.2,0.2C45.3,12.9,45.2,12.8,45.1,12.7z"/>
	<path class="st0" d="M41.4,10.2c0.7,0.3,1.3,0.7,2,1.1C42.7,10.9,42.1,10.5,41.4,10.2z"/>
	<path class="st0" d="M44.3,12c0.1,0.1,0.2,0.1,0.3,0.2C44.5,12.1,44.4,12.1,44.3,12z"/>
	<path class="st0" d="M44.6,12.2c0.1,0.1,0.2,0.1,0.2,0.2C44.7,12.4,44.7,12.3,44.6,12.2z"/>
	<path class="st0" d="M43.4,11.3c0.1,0.1,0.2,0.1,0.3,0.2C43.6,11.4,43.5,11.4,43.4,11.3z"/>
	<path class="st0" d="M43.7,11.5c0.1,0.1,0.2,0.1,0.3,0.2C43.9,11.7,43.8,11.6,43.7,11.5z"/>
	<path class="st0" d="M45.9,13.5c0.1,0.1,0.2,0.2,0.2,0.3C46.1,13.7,46,13.6,45.9,13.5z"/>
	<path class="st0" d="M37.5,9c0.1,0,0.1,0,0.2,0C37.6,9,37.6,9,37.5,9z"/>
	<path class="st0" d="M45.7,13.3c0.1,0.1,0.2,0.2,0.2,0.2C45.8,13.4,45.8,13.3,45.7,13.3z"/>
	<path class="st0" d="M44.9,12.5c0.1,0.1,0.2,0.1,0.2,0.2C45,12.6,44.9,12.6,44.9,12.5z"/>
	<path class="st0" d="M45.4,13c0.1,0.1,0.2,0.2,0.2,0.2C45.6,13.1,45.5,13.1,45.4,13z"/>
	<path class="st0" d="M44,11.8c0.1,0.1,0.2,0.1,0.3,0.2C44.2,11.9,44.1,11.8,44,11.8z"/>
	<path class="st0" d="M39.3,9.4c0.1,0,0.1,0,0.2,0.1C39.5,9.4,39.4,9.4,39.3,9.4z"/>
	<path class="st0" d="M39,9.3c0.1,0,0.1,0,0.2,0.1C39.1,9.3,39,9.3,39,9.3z"/>
	<path class="st0" d="M38.6,9.2c0.1,0,0.1,0,0.2,0.1C38.7,9.2,38.7,9.2,38.6,9.2z"/>
	<path class="st0" d="M37.9,9c0.1,0,0.1,0,0.2,0C38,9.1,37.9,9.1,37.9,9z"/>
	<path class="st0" d="M38.2,9.1c0.1,0,0.1,0,0.2,0C38.4,9.1,38.3,9.1,38.2,9.1z"/>
	<path class="st0" d="M40.7,9.9c0.1,0,0.2,0.1,0.3,0.1C40.9,9.9,40.8,9.9,40.7,9.9z"/>
	<path class="st0" d="M41.1,10c0.1,0,0.2,0.1,0.3,0.1C41.2,10.1,41.2,10.1,41.1,10z"/>
	<path class="st0" d="M40.4,9.7c0.1,0,0.2,0.1,0.2,0.1C40.5,9.8,40.5,9.8,40.4,9.7z"/>
	<path class="st0" d="M40,9.6c0.1,0,0.2,0.1,0.2,0.1C40.2,9.7,40.1,9.6,40,9.6z"/>
	<path class="st0" d="M39.7,9.5c0.1,0,0.1,0,0.2,0.1C39.8,9.5,39.7,9.5,39.7,9.5z"/>
	<polygon class="st0" points="43.9,33.3 45.7,37.7 45.7,37.7 	"/>
	<path class="st0" d="M29.6,48.8C29.6,48.8,29.6,48.8,29.6,48.8l2.4,5.8c0,0,0,0,0,0L29.6,48.8z"/>
	<path class="st0" d="M32,43.1L32,43.1c-0.8,1.9-1.5,3.7-2.3,5.6c0,0,0,0,0-0.1L32,43.1z"/>
	<path class="st0" d="M35.4,51.6C35.4,51.6,35.4,51.6,35.4,51.6C35.4,51.6,35.4,51.6,35.4,51.6L35.4,51.6z"/>
	<path class="st0" d="M38.5,11.2c-0.5-0.1-1.1,0.3-1.2,0.8c-0.1,0.5,0.3,1.1,0.8,1.2c0.2,0,5.5,1.1,7.2,7.4c0.1,0.4,0.5,0.7,1,0.7
		c0.1,0,0.2,0,0.3,0c0.5-0.1,0.8-0.7,0.7-1.2C45.3,12.5,38.8,11.3,38.5,11.2z"/>
	<path class="st0" d="M52,25.1c0-0.3,0-0.6,0-0.9c0-9.6-7.5-17.4-16.6-17.4c-9.2,0-16.6,7.8-16.6,17.4c0,0.3,0,0.6,0,0.9
		c-1.3,0.8-2,2.2-2,3.8c0,2.4,1.9,4.4,4.3,4.4h0.2L34.5,66c0.2,0.4,0.5,0.6,0.9,0.6c0.4,0,0.8-0.2,0.9-0.6l13.3-32.7h0.2
		c2.4,0,4.3-2,4.3-4.4C54.1,27.3,53.3,25.9,52,25.1z M23.3,33.3h3.5l-0.6,1.4l-0.8,1.9l-0.4,1L23.3,33.3z M26.2,40.3
		c0,0,2.3-5.5,2.3-5.7c0,0,0,0,0,0l2.4,5.8c-0.8,1.9-1.5,3.8-2.3,5.7L26.2,40.3z M35.8,61.9l-0.4,1l-2.3-5.7
		c0.8-1.9,1.5-3.7,2.3-5.6c0,0,0-0.1,0-0.1l0,0l1,2.5l1.3,3.2L35.8,61.9z M42.7,45.1l-0.5,1.1L42,45.6c-0.7-1.7-1.4-3.4-2.1-5.2
		c0.8-1.9,1.6-3.9,2.4-5.8c0,0,0.5,1.2,1,2.4c0.6,1.5,1.3,3.2,1.3,3.3L42.7,45.1z M40.1,34.8c-0.3,0.7-0.5,1.3-0.8,2
		c-0.1,0.4-0.3,0.7-0.4,1.1c-0.6-1.5-1.2-3-1.8-4.5h3.7C40.5,33.8,40.3,34.3,40.1,34.8z M37.8,40.5c-0.6,1.6-1.3,3.1-1.9,4.7
		c-0.2,0.4-0.3,0.8-0.5,1.1L33,40.5c0.8-1.9,1.6-3.9,2.4-5.8c0.3,0.8,0.7,1.6,1,2.5C36.9,38.2,37.3,39.3,37.8,40.5z M33.2,34.8
		c-0.3,0.7-0.5,1.3-0.8,2c-0.1,0.4-0.3,0.7-0.4,1.1l-1.8-4.5h3.6C33.6,33.8,33.4,34.3,33.2,34.8z M29.6,48.8
		C29.6,48.8,29.6,48.8,29.6,48.8C29.6,48.8,29.7,48.8,29.6,48.8c0.8-1.9,1.6-3.8,2.3-5.7l0,0l1,2.5l1.4,3.4
		c-0.6,1.6-1.3,3.1-1.9,4.7c-0.1,0.3-0.3,0.7-0.4,1c0,0,0,0,0,0L29.6,48.8z M39.3,53.5l-0.5,1.1l-2.3-5.7c0.8-1.9,1.6-3.9,2.4-5.8
		c0.2,0.4,0.6,1.4,1,2.4c0.6,1.6,1.3,3.3,1.3,3.3l0,0L39.3,53.5z M43.9,33.3h3.5l-0.6,1.4l-0.8,1.9l-0.4,1l0,0L43.9,33.3z
		 M49.8,31.3H49c0,0,0,0,0,0H21.9c0,0,0,0,0,0H21c-0.2,0-0.5,0-0.7-0.1c-0.1,0-0.1,0-0.2-0.1c0,0-0.1,0-0.1,0c0,0-0.1,0-0.1,0
		c0,0-0.1,0-0.1-0.1c0,0-0.1,0-0.1-0.1c0,0-0.1,0-0.1-0.1c0,0-0.1,0-0.1-0.1c0,0-0.1,0-0.1-0.1c0,0-0.1-0.1-0.1-0.1c0,0,0,0-0.1-0.1
		c0,0-0.1-0.1-0.1-0.1c0,0,0,0-0.1-0.1c0,0,0-0.1-0.1-0.1c0,0,0-0.1,0-0.1c0,0,0-0.1-0.1-0.1c0,0,0,0,0-0.1c0-0.1-0.1-0.1-0.1-0.2
		c0,0,0,0,0,0c0-0.1,0-0.1-0.1-0.2c0,0,0,0,0-0.1c0,0,0-0.1,0-0.1c0,0,0-0.1,0-0.1c0-0.1,0-0.1,0-0.2c0,0,0,0,0-0.1
		c0-0.1,0-0.2,0-0.2c0-1,0.6-1.9,1.5-2.3c0.4-0.2,0.6-0.6,0.6-1c0-0.5-0.1-0.9-0.1-1.4c0-8.5,6.6-15.4,14.6-15.4c0.1,0,0.3,0,0.4,0
		c0,0,0.1,0,0.1,0c0.1,0,0.2,0,0.3,0c0.1,0,0.1,0,0.2,0c0.1,0,0.2,0,0.2,0c0.1,0,0.1,0,0.2,0c0.1,0,0.1,0,0.2,0c0.1,0,0.1,0,0.2,0
		c0.1,0,0.1,0,0.2,0c0.1,0,0.1,0,0.2,0c0.1,0,0.1,0,0.2,0c0.1,0,0.1,0,0.2,0c0.1,0,0.1,0,0.2,0c0.1,0,0.1,0,0.2,0c0.1,0,0.1,0,0.2,0
		c0.1,0,0.1,0,0.2,0c0.1,0,0.1,0,0.2,0.1c0,0,0.1,0,0.1,0c0.1,0,0.1,0,0.2,0.1c0,0,0.1,0,0.1,0c0.1,0,0.1,0,0.2,0.1c0,0,0.1,0,0.1,0
		c0.1,0,0.1,0,0.2,0.1c0,0,0.1,0,0.1,0c0.1,0,0.2,0.1,0.2,0.1c0,0,0.1,0,0.1,0c0.1,0,0.2,0.1,0.2,0.1c0,0,0.1,0,0.1,0
		c0.1,0,0.2,0.1,0.3,0.1c0,0,0.1,0,0.1,0c0.1,0,0.2,0.1,0.3,0.1c0,0,0,0,0,0c0.7,0.3,1.3,0.7,2,1.1c0,0,0,0,0,0
		c0.1,0.1,0.2,0.1,0.3,0.2c0,0,0,0,0,0c0.1,0.1,0.2,0.1,0.3,0.2c0,0,0,0,0,0c0.1,0.1,0.2,0.1,0.3,0.2c0,0,0,0,0,0
		c0.1,0.1,0.2,0.1,0.3,0.2c0,0,0,0,0,0c0.1,0.1,0.2,0.1,0.2,0.2c0,0,0,0,0,0c0.1,0.1,0.2,0.1,0.2,0.2c0,0,0,0,0,0
		c0.1,0.1,0.2,0.1,0.2,0.2c0,0,0,0,0,0c0.1,0.1,0.2,0.2,0.2,0.2c0,0,0,0,0,0c0.1,0.1,0.2,0.2,0.2,0.2c0,0,0,0,0,0
		c0.1,0.1,0.2,0.2,0.2,0.3c0,0,0,0,0,0c2.4,2.7,3.9,6.4,3.9,10.4c0,0.4,0,0.9-0.1,1.4c0,0.4,0.2,0.8,0.6,1c0.9,0.4,1.5,1.3,1.5,2.3
		C52.1,30.2,51,31.3,49.8,31.3z"/>
</g>
</svg>
